<?xml version="1.0" encoding="UTF-8"?>
<svg xmlns="http://www.w3.org/2000/svg" xmlns:xodm="http://www.corel.com/coreldraw/odm/2003" version="1.1" viewBox="0 0 512 512">
  <defs>
    <style>
      .cls-1 {
        fill: #fff;
      }

      .cls-1, .cls-2 {
        fill-rule: evenodd;
      }

      .cls-2 {
        fill: #eb828a;
      }
    </style>
  </defs>
  <!-- Generator: Adobe Illustrator 28.7.1, SVG Export Plug-In . SVG Version: 1.2.0 Build 142)  -->
  <g>
    <g id="Capa_1">
      <g id="Capa_1-2" data-name="Capa_1" image-rendering="optimizeQuality" shape-rendering="geometricPrecision" text-rendering="geometricPrecision">
        <g id="Layer_x5F_1">
          <path class="cls-2" d="M256,0c141.4,0,256,114.6,256,256s-114.6,256-256,256S0,397.4,0,256,114.6,0,256,0ZM222.9,380.3c0,1.8,1.4,3.2,3.2,3.2h45.8c1.8,0,3.2-1.4,3.2-3.2v-125.4h33.2c1.7,0,3.1-1.3,3.2-2.9l3.2-37.8c.2-1.9-1.3-3.5-3.2-3.5h-36.4v-26.8c0-6.3,5.1-11.4,11.4-11.4h25.6c1.8,0,3.2-1.4,3.2-3.2v-37.8c0-1.8-1.4-3.2-3.2-3.2h-43.2c-25.4,0-45.9,20.6-45.9,45.9v36.4h-22.9c-1.8,0-3.2,1.4-3.2,3.2v37.8c0,1.8,1.4,3.2,3.2,3.2h22.9v125.4h-.1Z"/>
        </g>
      </g>
      <path class="cls-1" d="M222.9,380.3c0,1.8,1.4,3.2,3.2,3.2h45.8c1.8,0,3.2-1.4,3.2-3.2v-125.4h33.2c1.7,0,3.1-1.3,3.2-2.9l3.2-37.8c.2-1.9-1.3-3.5-3.2-3.5h-36.4v-26.8c0-6.3,5.1-11.4,11.4-11.4h25.6c1.8,0,3.2-1.4,3.2-3.2v-37.8c0-1.8-1.4-3.2-3.2-3.2h-43.2c-25.4,0-45.9,20.6-45.9,45.9v36.4h-22.9c-1.8,0-3.2,1.4-3.2,3.2v37.8c0,1.8,1.4,3.2,3.2,3.2h22.9v125.4h-.1Z"/>
    </g>
  </g>
</svg>