<?xml version="1.0" encoding="UTF-8"?>
<svg xmlns="http://www.w3.org/2000/svg" xmlns:xodm="http://www.corel.com/coreldraw/odm/2003" version="1.1" viewBox="0 0 512 512">
  <defs>
    <style>
      .cls-1, .cls-2 {
        fill-rule: evenodd;
      }

      .cls-1, .cls-3 {
        fill: #fff;
      }

      .cls-2 {
        fill: #eb828a;
      }
    </style>
  </defs>
  <!-- Generator: Adobe Illustrator 28.7.1, SVG Export Plug-In . SVG Version: 1.2.0 Build 142)  -->
  <g>
    <g id="Capa_1">
      <g id="Capa_1-2" data-name="Capa_1" image-rendering="optimizeQuality" shape-rendering="geometricPrecision" text-rendering="geometricPrecision">
        <g id="Layer_x5F_1">
          <path class="cls-2" d="M256,0c141.4,0,256,114.6,256,256s-114.6,256-256,256S0,397.4,0,256,114.6,0,256,0ZM202.4,126.9c-48.2,2.2-73.5,29.3-75.6,75.6-1.6,35-1.6,72.1,0,107.1,2.1,46.3,27.4,73.4,75.6,75.6,35,1.6,72.1,1.6,107.1,0,46.3-2.1,73.4-27.4,75.6-75.6,1.6-35,1.6-72.1,0-107.1-2.2-47.2-28.4-73.4-75.6-75.6-35-1.6-72.1-1.6-107.1,0ZM308.5,150.3c35,1.6,51.7,18.2,53.2,53.2,1.6,34.3,1.6,70.7,0,105-1.6,36-19.2,51.7-53.2,53.2-34.3,1.6-70.7,1.6-105,0-34.1-1.5-51.6-17.2-53.2-53.2-1.6-34.3-1.6-70.7,0-105,1.6-34.1,17.2-51.6,53.2-53.2,34.3-1.6,70.7-1.6,105,0ZM256,299.3c-23.9,0-43.3-19.4-43.3-43.3s19.4-43.3,43.3-43.3,43.3,19.4,43.3,43.3-19.4,43.3-43.3,43.3h0ZM256,189.3c-36.8,0-66.7,29.9-66.7,66.7s29.9,66.7,66.7,66.7,66.7-29.9,66.7-66.7-29.9-66.7-66.7-66.7ZM340.9,186.6c0,8.6-7,15.6-15.6,15.6s-15.6-7-15.6-15.6,7-15.6,15.6-15.6,15.6,7,15.6,15.6h0Z"/>
        </g>
      </g>
      <path class="cls-1" d="M385.1,202.5c-2.2-47.2-28.4-73.4-75.6-75.6-35-1.6-72.1-1.6-107.1,0-48.2,2.2-73.5,29.3-75.6,75.6-1.6,35-1.6,72.1,0,107.1,2.1,46.3,27.4,73.4,75.6,75.6,35,1.6,72.1,1.6,107.1,0,46.3-2.1,73.4-27.4,75.6-75.6,1.6-35,1.6-72.1,0-107.1ZM361.7,308.5c-1.6,36-19.2,51.7-53.2,53.2-34.3,1.6-70.7,1.6-105,0-34.1-1.5-51.6-17.2-53.2-53.2-1.6-34.3-1.6-70.7,0-105,1.6-34.1,17.2-51.6,53.2-53.2,34.3-1.6,70.7-1.6,105,0,35,1.6,51.7,18.2,53.2,53.2,1.6,34.3,1.6,70.7,0,105Z"/>
      <path class="cls-3" d="M256,189.3c-36.8,0-66.7,29.9-66.7,66.7s29.9,66.7,66.7,66.7,66.7-29.9,66.7-66.7-29.9-66.7-66.7-66.7ZM256,299.3c-23.9,0-43.3-19.4-43.3-43.3s19.4-43.3,43.3-43.3,43.3,19.4,43.3,43.3-19.4,43.3-43.3,43.3Z"/>
      <path class="cls-3" d="M340.9,186.6c0,8.6-7,15.6-15.6,15.6s-15.6-7-15.6-15.6,7-15.6,15.6-15.6,15.6,7,15.6,15.6h0Z"/>
    </g>
  </g>
</svg>