<?xml version="1.0" encoding="UTF-8"?>
<svg xmlns="http://www.w3.org/2000/svg" version="1.1" viewBox="0 0 447.8 449.1">
  <defs>
    <style>
      .cls-1 {
        fill: #fdfbf4;
      }
    </style>
  </defs>
  <!-- Generator: Adobe Illustrator 28.7.1, SVG Export Plug-In . SVG Version: 1.2.0 Build 142)  -->
  <g>
    <g id="Capa_2">
      <g id="Capa_1-2">
        <path class="cls-1" d="M54.9,378.8v44c-.2,3.7-1,7.2-2.5,10.4-1.5,3.2-3.4,6-5.8,8.4s-5.2,4.2-8.5,5.6c-3.2,1.4-6.7,2-10.3,2s-9.5-1.2-13.7-3.6c-4.2-2.4-7.5-5.7-10-9.9v-.2c0,0,0-.1,0-.1l10.9-4.8c.7,1.2,1.5,2.2,2.5,3.1s2.1,1.6,3.3,2.2c1.2.6,2.4,1,3.6,1.3,1.2.3,2.4.5,3.5.5,1.7,0,3.4-.4,5.1-1.1,1.7-.7,3.1-1.8,4.4-3.2,1.3-1.4,2.3-3.1,3.1-5,.8-1.9,1.1-4.1,1.1-6.5v-18.2c0-1.9-.4-3.7-1.1-5.4s-1.8-3.2-3.1-4.4c-1.3-1.2-2.8-2.2-4.5-2.9-1.7-.7-3.5-1.1-5.4-1.1s-3.7.4-5.4,1.1-3.2,1.7-4.4,3c-1.3,1.2-2.2,2.7-3,4.4-.7,1.7-1.1,3.5-1.1,5.5s.4,3.7,1.1,5.4c.7,1.7,1.7,3.1,3,4.4s2.7,2.3,4.4,3,3.5,1.1,5.4,1.1,3.8-.4,5.4-1.1h.2c0,.1,5,8.9,5,8.9h0c-3.2,2.7-7.3,4-12,4s-7-.7-10.1-2-5.9-3.2-8.2-5.5c-2.3-2.3-4.2-5-5.5-8.2C.7,410.5,0,407.2,0,403.7s.7-6.9,2-10c1.4-3.1,3.2-5.8,5.5-8.1s5.1-4.2,8.2-5.5,6.6-2,10.1-2c6.8,0,12,2.5,15.7,7.6v-6.8h13.2Z"/>
        <path class="cls-1" d="M62.9,358.9h13.2v11.6h-13.2v-11.6ZM62.9,428.5v-49.7h13.2v49.7h-13.2Z"/>
        <path class="cls-1" d="M84.2,378.8h13.2v49.7h-13.2v-49.7ZM138.1,378c3.1,0,5.8.6,7.9,1.8s3.9,2.8,5.2,4.8c1.3,2,2.3,4.2,2.9,6.7.6,2.5.9,5,.9,7.5v29.6h-13.2v-29.7c.1-1.1,0-2.1-.5-3-.4-.9-.9-1.8-1.6-2.5-.7-.7-1.5-1.3-2.5-1.8-1-.4-2-.6-3-.6-2.2,0-4,.8-5.6,2.3-1.5,1.6-2.3,3.4-2.3,5.5v29.7h-13.2v-29.7c0-1.1-.2-2.1-.6-3s-1-1.8-1.7-2.5c-.7-.7-1.6-1.3-2.5-1.7-1-.4-2-.6-3.2-.6s-.4-.5-.9-1.5c-.5-1-1.1-2.1-1.8-3.3-.7-1.4-1.6-3-2.7-4.7v-.2c2.9-2.2,6.1-3.4,9.5-3.4s6.7.8,9.1,2.5c2.3,1.6,4.1,3.7,5.4,6.1.3-.5.5-.9.8-1.2,1.8-2.4,4-4.3,6.3-5.5,2.4-1.2,4.8-1.9,7.4-1.9h0Z"/>
        <path class="cls-1" d="M216.4,378.8v49.7h-13v-24.9c0-1.9-.4-3.7-1.1-5.4s-1.7-3.1-3-4.4c-1.3-1.3-2.8-2.2-4.5-2.9s-3.5-1-5.3-1-3.7.4-5.4,1.1c-1.7.7-3.1,1.7-4.4,2.9s-2.3,2.7-3,4.4-1.1,3.5-1.1,5.4.4,3.6,1.1,5.3,1.7,3.1,3,4.4,2.8,2.3,4.4,3c1.7.7,3.4,1.1,5.4,1.1s3.8-.4,5.3-1.1h.1v.2l5,8.9h-.1c-3.2,2.6-7.3,3.9-12,3.9s-6.8-.7-9.9-2c-3.1-1.3-5.8-3.1-8.1-5.5-2.3-2.3-4.2-5-5.5-8.1s-2-6.4-2-9.9.7-6.9,2-10,3.2-5.8,5.5-8.1,5-4.2,8.1-5.5,6.4-2,9.9-2,6.5.6,9.1,1.9,4.8,3.1,6.7,5.6v-6.7h13,0Z"/>
        <path class="cls-1" d="M281.8,399.2l-3.4,2.1c-4.1-4.1-9.4-6.2-15.8-6.2s-9.8,1.5-13.6,4.5-5.7,6.7-5.7,11,1.9,8,5.6,10.9c3.7,2.9,8.4,4.4,13.9,4.4s11.4-2,15.6-5.9l3.4,2.1c-2.2,2.3-4.9,4.1-8.2,5.3s-7,1.8-11,1.8c-7,0-12.8-1.8-17.2-5.4s-6.7-8.1-6.7-13.6,1-6.5,3.1-9.4c2.1-2.9,4.9-5.1,8.6-6.8,3.7-1.6,7.6-2.5,11.8-2.5s8,.6,11.4,2c3.4,1.3,6.1,3.2,8.2,5.6h0Z"/>
        <path class="cls-1" d="M293.5,392.6h4.5v32.5h17v3.5h-21.5v-35.9h0Z"/>
        <path class="cls-1" d="M324.1,392.6h4.4v35.9h-4.4v-35.9Z"/>
        <path class="cls-1" d="M341.5,428.5v-35.9h1l29.3,27.5v-27.5h4.4v35.9h-1l-29.1-27.1v27.1h-4.5Z"/>
        <path class="cls-1" d="M389.3,392.6h4.4v35.9h-4.4v-35.9Z"/>
        <path class="cls-1" d="M447.8,399.2l-3.4,2.1c-4.1-4.1-9.4-6.2-15.8-6.2s-9.8,1.5-13.6,4.5-5.7,6.7-5.7,11,1.9,8,5.6,10.9c3.7,2.9,8.4,4.4,13.9,4.4s11.4-2,15.6-5.9l3.4,2.1c-2.2,2.3-4.9,4.1-8.2,5.3s-7,1.8-11,1.8c-7,0-12.8-1.8-17.2-5.4s-6.7-8.1-6.7-13.6,1-6.5,3.1-9.4c2.1-2.9,4.9-5.1,8.6-6.8,3.7-1.6,7.6-2.5,11.8-2.5s8,.6,11.4,2c3.4,1.3,6.1,3.2,8.2,5.6h0Z"/>
        <path class="cls-1" d="M211.9,100.9c-38.2-33.9-108.4-30.2-151.4,7.7-46.8,41.2-54.5,108.7-18.1,159.2,35.1,48.7,103.7,63,158.2,33.1,48-26.4,75.6-90.3,57-133.5-8.1,5.3-16.9,9.7-23.7,16.1-3.7,3.5-5.4,10.4-5.7,15.8-2.3,39.6-29.6,71.7-69.4,80.8-37.8,8.6-77.6-9.3-95.1-44.3-15.7-31.5-12.7-62.6,9.6-90.5,22.6-28.3,53.9-41.2,88.4-30.1,23.2,7.5,35.4-2.7,50.2-14.4"/>
        <path class="cls-1" d="M247.2,25.4c-2,4.5-5.4,7.8-10.2,9.7-4.8,1.9-9.4,1.9-13.9,0-4.5-1.9-7.7-5.3-9.6-10-1.9-4.8-1.9-9.4,0-13.9,1.9-4.5,5.3-7.7,10-9.6,4.8-1.9,9.4-1.9,14,0,4.6,1.9,7.8,5.2,9.8,10,1.9,4.8,1.9,9.4-.1,14"/>
        <path class="cls-1" d="M425.8,73.2l-68-49.7c-3.1-2.2-9.5-7.7-15-3-2.1,1.8-2.9,5.4-3.3,7l-15.9,70.9-53.8-39.3c-3.7-2-9.6-5.5-16.7-4.7-8,1-12.3,5.7-9.8,20.1,1,5.6,2.9,11.1,4.3,16.6,7.3,28.6,9.7,24.7-18.7,42.6-28.6,17.9-57.1,36-85.6,54.1-9.3,5.9-11.8,12.4-7.3,18.5,4.4,6,11.9,6.3,21.1.5,33.6-21.1,67.2-42.2,100.7-63.5,17.7-11.2,23.4-24.4,18.8-42.7-1.2-5-2.5-9.9-3.8-14.8l49.6,36.5c1.4.9,2.3,1.6,3.3,2.1,6.4,2.3,10-1.6,11.6-4.5,3.4-6.3,17.8-75.8,17.8-75.8l61,43.8c3.4,2.4,8.1,1.7,10.5-1.7s2.8-10.6-.6-13"/>
      </g>
    </g>
  </g>
</svg>